<mxfile host="app.diagrams.net" modified="2024-06-05T07:49:46.458Z" agent="Mozilla/5.0 (Windows NT 10.0; Win64; x64) AppleWebKit/537.36 (KHTML, like Gecko) Chrome/125.0.0.0 Safari/537.36" etag="GGkrneKBdnpezMzHjQms" version="24.4.13" type="device">
  <diagram name="Page-1" id="NUK5qpvq4zJBjOd_8CTg">
    <mxGraphModel dx="1290" dy="522" grid="1" gridSize="10" guides="1" tooltips="1" connect="1" arrows="1" fold="1" page="1" pageScale="1" pageWidth="827" pageHeight="1169" math="0" shadow="0">
      <root>
        <mxCell id="0" />
        <mxCell id="1" parent="0" />
        <mxCell id="3nIZqbsl4TykDKHGsZq8-2" value="Climate&lt;div&gt;Measurement&lt;/div&gt;&lt;div&gt;Service&lt;/div&gt;" style="shape=umlLifeline;perimeter=lifelinePerimeter;whiteSpace=wrap;html=1;container=1;dropTarget=0;collapsible=0;recursiveResize=0;outlineConnect=0;portConstraint=eastwest;newEdgeStyle={&quot;curved&quot;:0,&quot;rounded&quot;:0};" parent="1" vertex="1">
          <mxGeometry x="49" y="40" width="100" height="420" as="geometry" />
        </mxCell>
        <mxCell id="8EiC_3UMeOr8eOnR2g8f-13" value="" style="html=1;points=[[0,0,0,0,5],[0,1,0,0,-5],[1,0,0,0,5],[1,1,0,0,-5]];perimeter=orthogonalPerimeter;outlineConnect=0;targetShapes=umlLifeline;portConstraint=eastwest;newEdgeStyle={&quot;curved&quot;:0,&quot;rounded&quot;:0};" parent="3nIZqbsl4TykDKHGsZq8-2" vertex="1">
          <mxGeometry x="45" y="230" width="10" height="40" as="geometry" />
        </mxCell>
        <mxCell id="8EiC_3UMeOr8eOnR2g8f-14" value="&lt;div style=&quot;text-align: center;&quot;&gt;areLimitsViolated&lt;/div&gt;" style="html=1;align=left;spacingLeft=2;endArrow=block;rounded=0;edgeStyle=orthogonalEdgeStyle;curved=0;rounded=0;exitX=1;exitY=0;exitDx=0;exitDy=5;exitPerimeter=0;" parent="3nIZqbsl4TykDKHGsZq8-2" source="8EiC_3UMeOr8eOnR2g8f-13" target="8EiC_3UMeOr8eOnR2g8f-13" edge="1">
          <mxGeometry x="0.1429" y="1" relative="1" as="geometry">
            <mxPoint x="60" y="240" as="sourcePoint" />
            <Array as="points">
              <mxPoint x="55" y="230" />
              <mxPoint x="90" y="230" />
              <mxPoint x="90" y="260" />
            </Array>
            <mxPoint as="offset" />
          </mxGeometry>
        </mxCell>
        <mxCell id="3nIZqbsl4TykDKHGsZq8-3" value="John&amp;nbsp; Doe&lt;div&gt;: Employee&lt;/div&gt;" style="shape=umlLifeline;perimeter=lifelinePerimeter;whiteSpace=wrap;html=1;container=1;dropTarget=0;collapsible=0;recursiveResize=0;outlineConnect=0;portConstraint=eastwest;newEdgeStyle={&quot;curved&quot;:0,&quot;rounded&quot;:0};" parent="1" vertex="1">
          <mxGeometry x="1510" y="40" width="100" height="2120" as="geometry" />
        </mxCell>
        <mxCell id="3nIZqbsl4TykDKHGsZq8-5" value="WarningService" style="shape=umlLifeline;perimeter=lifelinePerimeter;whiteSpace=wrap;html=1;container=1;dropTarget=0;collapsible=0;recursiveResize=0;outlineConnect=0;portConstraint=eastwest;newEdgeStyle={&quot;curved&quot;:0,&quot;rounded&quot;:0};" parent="1" vertex="1">
          <mxGeometry x="311" y="40" width="100" height="2120" as="geometry" />
        </mxCell>
        <mxCell id="TvGUeZ-TrCDfsQQZFpxs-3" value="" style="html=1;points=[[0,0,0,0,5],[0,1,0,0,-5],[1,0,0,0,5],[1,1,0,0,-5]];perimeter=orthogonalPerimeter;outlineConnect=0;targetShapes=umlLifeline;portConstraint=eastwest;newEdgeStyle={&quot;curved&quot;:0,&quot;rounded&quot;:0};" parent="3nIZqbsl4TykDKHGsZq8-5" vertex="1">
          <mxGeometry x="45" y="389" width="10" height="40" as="geometry" />
        </mxCell>
        <mxCell id="TvGUeZ-TrCDfsQQZFpxs-4" value="&lt;span style=&quot;text-align: center;&quot;&gt;existsActiveWarning&lt;/span&gt;" style="html=1;align=left;spacingLeft=2;endArrow=block;rounded=0;edgeStyle=orthogonalEdgeStyle;curved=0;rounded=0;" parent="3nIZqbsl4TykDKHGsZq8-5" target="TvGUeZ-TrCDfsQQZFpxs-3" edge="1">
          <mxGeometry x="0.1111" y="5" relative="1" as="geometry">
            <mxPoint x="55" y="389" as="sourcePoint" />
            <Array as="points">
              <mxPoint x="85" y="419" />
            </Array>
            <mxPoint as="offset" />
          </mxGeometry>
        </mxCell>
        <mxCell id="3nIZqbsl4TykDKHGsZq8-6" value="checkWarning&lt;div&gt;(ClimateMeasurement)&lt;/div&gt;" style="html=1;verticalAlign=bottom;endArrow=block;curved=0;rounded=0;" parent="1" edge="1" target="3nIZqbsl4TykDKHGsZq8-5">
          <mxGeometry width="80" relative="1" as="geometry">
            <mxPoint x="98.5" y="399" as="sourcePoint" />
            <mxPoint x="350.5" y="399" as="targetPoint" />
          </mxGeometry>
        </mxCell>
        <mxCell id="3nIZqbsl4TykDKHGsZq8-10" value="Alt" style="shape=umlFrame;whiteSpace=wrap;html=1;pointerEvents=0;" parent="1" vertex="1">
          <mxGeometry x="50" y="339" width="1700" height="1801" as="geometry" />
        </mxCell>
        <mxCell id="3nIZqbsl4TykDKHGsZq8-13" value="warning1&lt;div&gt;:Warning&lt;/div&gt;" style="shape=umlLifeline;perimeter=lifelinePerimeter;whiteSpace=wrap;html=1;container=1;dropTarget=0;collapsible=0;recursiveResize=0;outlineConnect=0;portConstraint=eastwest;newEdgeStyle={&quot;curved&quot;:0,&quot;rounded&quot;:0};" parent="1" vertex="1">
          <mxGeometry x="480" y="520" width="100" height="1640" as="geometry" />
        </mxCell>
        <mxCell id="3nIZqbsl4TykDKHGsZq8-14" value="&amp;lt;&amp;lt;new&amp;gt;&amp;gt;" style="html=1;verticalAlign=bottom;endArrow=open;dashed=1;endSize=8;curved=0;rounded=0;" parent="1" source="3nIZqbsl4TykDKHGsZq8-5" edge="1">
          <mxGeometry relative="1" as="geometry">
            <mxPoint x="350.5" y="600" as="sourcePoint" />
            <mxPoint x="529.5" y="600" as="targetPoint" />
          </mxGeometry>
        </mxCell>
        <mxCell id="3nIZqbsl4TykDKHGsZq8-15" value="timeStamp = now&lt;div&gt;warningStatus = DRAFT&lt;/div&gt;" style="edgeLabel;html=1;align=center;verticalAlign=middle;resizable=0;points=[];" parent="3nIZqbsl4TykDKHGsZq8-14" vertex="1" connectable="0">
          <mxGeometry x="0.5885" y="-4" relative="1" as="geometry">
            <mxPoint x="-51" y="11" as="offset" />
          </mxGeometry>
        </mxCell>
        <mxCell id="3nIZqbsl4TykDKHGsZq8-18" value="Alt" style="shape=umlFrame;whiteSpace=wrap;html=1;pointerEvents=0;" parent="1" vertex="1">
          <mxGeometry x="61" y="490" width="1679" height="1640" as="geometry" />
        </mxCell>
        <mxCell id="3nIZqbsl4TykDKHGsZq8-20" value="" style="line;strokeWidth=1;fillColor=none;align=left;verticalAlign=middle;spacingTop=-1;spacingLeft=3;spacingRight=3;rotatable=0;labelPosition=right;points=[];portConstraint=eastwest;strokeColor=inherit;" parent="1" vertex="1">
          <mxGeometry x="71" y="1770" width="1679" height="8" as="geometry" />
        </mxCell>
        <mxCell id="3nIZqbsl4TykDKHGsZq8-23" value="[WarningStatus = DRAFT And timeStamp is older than 5 minutes]" style="text;html=1;align=center;verticalAlign=middle;resizable=0;points=[];autosize=1;strokeColor=none;fillColor=none;" parent="1" vertex="1">
          <mxGeometry x="70" y="999" width="370" height="30" as="geometry" />
        </mxCell>
        <mxCell id="3nIZqbsl4TykDKHGsZq8-24" value="getTimeStamp&lt;div style=&quot;font-size: 2px;&quot;&gt;&lt;br&gt;&lt;/div&gt;&lt;div&gt;getWarningStatus&lt;/div&gt;" style="html=1;verticalAlign=bottom;endArrow=block;curved=0;rounded=0;labelBackgroundColor=none;" parent="1" source="3nIZqbsl4TykDKHGsZq8-5" edge="1">
          <mxGeometry y="-20" width="80" relative="1" as="geometry">
            <mxPoint x="350.5" y="700" as="sourcePoint" />
            <mxPoint x="529.5" y="700" as="targetPoint" />
            <mxPoint as="offset" />
          </mxGeometry>
        </mxCell>
        <mxCell id="3nIZqbsl4TykDKHGsZq8-25" value="" style="html=1;verticalAlign=bottom;endArrow=open;dashed=1;endSize=8;curved=0;rounded=0;" parent="1" target="3nIZqbsl4TykDKHGsZq8-5" edge="1">
          <mxGeometry x="0.0273" y="3" relative="1" as="geometry">
            <mxPoint x="529.5" y="738" as="sourcePoint" />
            <mxPoint x="350.5" y="738" as="targetPoint" />
            <mxPoint x="1" as="offset" />
          </mxGeometry>
        </mxCell>
        <mxCell id="wxieQr1_1ycLe86I2z0I-2" value="timeStamp&lt;div style=&quot;font-size: 2px;&quot;&gt;&lt;br&gt;&lt;/div&gt;&lt;div&gt;warningStatus&lt;/div&gt;" style="edgeLabel;html=1;align=center;verticalAlign=middle;resizable=0;points=[];labelBackgroundColor=none;" parent="3nIZqbsl4TykDKHGsZq8-25" vertex="1" connectable="0">
          <mxGeometry x="0.0891" y="-2" relative="1" as="geometry">
            <mxPoint x="13" y="4" as="offset" />
          </mxGeometry>
        </mxCell>
        <mxCell id="3nIZqbsl4TykDKHGsZq8-29" value="setTimeStamp = climateMeasurement.getTimeStamp()&lt;div&gt;setWarningStatus = UNSEEN&lt;/div&gt;" style="html=1;verticalAlign=bottom;endArrow=block;curved=0;rounded=0;" parent="1" source="3nIZqbsl4TykDKHGsZq8-5" edge="1">
          <mxGeometry width="80" relative="1" as="geometry">
            <mxPoint x="350.5" y="1068" as="sourcePoint" />
            <mxPoint x="529.5" y="1068" as="targetPoint" />
          </mxGeometry>
        </mxCell>
        <mxCell id="3nIZqbsl4TykDKHGsZq8-30" value="publishEvent(temperaDevice, warning)" style="html=1;verticalAlign=bottom;endArrow=block;curved=0;rounded=0;" parent="1" edge="1">
          <mxGeometry width="80" relative="1" as="geometry">
            <mxPoint x="360.5" y="1130" as="sourcePoint" />
            <mxPoint x="909.5" y="1130" as="targetPoint" />
          </mxGeometry>
        </mxCell>
        <mxCell id="wxieQr1_1ycLe86I2z0I-3" value="[Warning should be renewed] --&amp;nbsp;&lt;span style=&quot;background-color: initial;&quot;&gt;(TimeStamp is older than 2 hours) OR&lt;/span&gt;&lt;div&gt;&lt;span style=&quot;background-color: initial;&quot;&gt;(warningStatus == IGNORED AND timeStamp is older than 60 minutes) OR&lt;/span&gt;&lt;/div&gt;&lt;div&gt;&lt;span style=&quot;background-color: initial;&quot;&gt;(warningStatus == CONFIRMED AND timeStamp is older than 15 minutes)&lt;/span&gt;&lt;/div&gt;" style="text;html=1;align=left;verticalAlign=middle;resizable=0;points=[];autosize=1;strokeColor=none;fillColor=none;" parent="1" vertex="1">
          <mxGeometry x="130" y="786" width="430" height="60" as="geometry" />
        </mxCell>
        <mxCell id="wxieQr1_1ycLe86I2z0I-4" value="&amp;lt;&amp;lt;new&amp;gt;&amp;gt;" style="html=1;verticalAlign=bottom;endArrow=open;dashed=1;endSize=8;curved=0;rounded=0;" parent="1" source="3nIZqbsl4TykDKHGsZq8-5" edge="1">
          <mxGeometry relative="1" as="geometry">
            <mxPoint x="350.5" y="953" as="sourcePoint" />
            <mxPoint x="649.5" y="953" as="targetPoint" />
          </mxGeometry>
        </mxCell>
        <mxCell id="wxieQr1_1ycLe86I2z0I-5" value="timeStamp = climateMeasuerement.getTimeStamp()&lt;div&gt;warningStatus = DRAFT&lt;/div&gt;" style="edgeLabel;html=1;align=center;verticalAlign=middle;resizable=0;points=[];" parent="wxieQr1_1ycLe86I2z0I-4" vertex="1" connectable="0">
          <mxGeometry x="0.5885" y="-4" relative="1" as="geometry">
            <mxPoint x="-83" y="11" as="offset" />
          </mxGeometry>
        </mxCell>
        <mxCell id="wxieQr1_1ycLe86I2z0I-6" value="" style="shape=umlDestroy;whiteSpace=wrap;html=1;strokeWidth=3;targetShapes=umlLifeline;" parent="1" vertex="1">
          <mxGeometry x="515" y="853" width="30" height="30" as="geometry" />
        </mxCell>
        <mxCell id="wxieQr1_1ycLe86I2z0I-7" value="" style="html=1;verticalAlign=bottom;endArrow=open;dashed=1;endSize=8;curved=0;rounded=0;" parent="1" source="3nIZqbsl4TykDKHGsZq8-5" edge="1">
          <mxGeometry relative="1" as="geometry">
            <mxPoint x="350.5" y="868" as="sourcePoint" />
            <mxPoint x="529.5" y="868" as="targetPoint" />
          </mxGeometry>
        </mxCell>
        <mxCell id="wxieQr1_1ycLe86I2z0I-11" value="ApplicationEvent&lt;br&gt;Publisher" style="shape=umlLifeline;perimeter=lifelinePerimeter;whiteSpace=wrap;html=1;container=1;dropTarget=0;collapsible=0;recursiveResize=0;outlineConnect=0;portConstraint=eastwest;newEdgeStyle={&quot;curved&quot;:0,&quot;rounded&quot;:0};" parent="1" vertex="1">
          <mxGeometry x="860" y="40" width="100" height="2120" as="geometry" />
        </mxCell>
        <mxCell id="wxieQr1_1ycLe86I2z0I-12" value="publishEvent(temperaDevice, warning)" style="html=1;verticalAlign=bottom;endArrow=block;curved=0;rounded=0;" parent="1" edge="1">
          <mxGeometry width="80" relative="1" as="geometry">
            <mxPoint x="909.5" y="1240" as="sourcePoint" />
            <mxPoint x="1169.5" y="1240" as="targetPoint" />
          </mxGeometry>
        </mxCell>
        <mxCell id="wxieQr1_1ycLe86I2z0I-14" value="Alt" style="shape=umlFrame;whiteSpace=wrap;html=1;pointerEvents=0;" parent="1" vertex="1">
          <mxGeometry x="80" y="1300" width="1640" height="465" as="geometry" />
        </mxCell>
        <mxCell id="wxieQr1_1ycLe86I2z0I-19" value="&lt;span style=&quot;color: rgb(0, 0, 0); font-family: Helvetica; font-size: 12px; font-style: normal; font-variant-ligatures: normal; font-variant-caps: normal; font-weight: 400; letter-spacing: normal; orphans: 2; text-align: center; text-indent: 0px; text-transform: none; widows: 2; word-spacing: 0px; -webkit-text-stroke-width: 0px; white-space: nowrap; background-color: rgb(251, 251, 251); text-decoration-thickness: initial; text-decoration-style: initial; text-decoration-color: initial; display: inline !important; float: none;&quot;&gt;[User ignores warning]&lt;/span&gt;" style="text;whiteSpace=wrap;html=1;" parent="1" vertex="1">
          <mxGeometry x="142" y="1300" width="130" height="40" as="geometry" />
        </mxCell>
        <mxCell id="wxieQr1_1ycLe86I2z0I-20" value="&lt;span style=&quot;color: rgb(0, 0, 0); font-family: Helvetica; font-size: 12px; font-style: normal; font-variant-ligatures: normal; font-variant-caps: normal; font-weight: 400; letter-spacing: normal; orphans: 2; text-align: center; text-indent: 0px; text-transform: none; widows: 2; word-spacing: 0px; -webkit-text-stroke-width: 0px; white-space: nowrap; background-color: rgb(251, 251, 251); text-decoration-thickness: initial; text-decoration-style: initial; text-decoration-color: initial; display: inline !important; float: none;&quot;&gt;[User confirms warning]&lt;/span&gt;" style="text;whiteSpace=wrap;html=1;" parent="1" vertex="1">
          <mxGeometry x="99" y="1547" width="130" height="40" as="geometry" />
        </mxCell>
        <mxCell id="wxieQr1_1ycLe86I2z0I-21" value="" style="line;strokeWidth=1;fillColor=none;align=left;verticalAlign=middle;spacingTop=-1;spacingLeft=3;spacingRight=3;rotatable=0;labelPosition=right;points=[];portConstraint=eastwest;strokeColor=inherit;" parent="1" vertex="1">
          <mxGeometry x="80" y="1539" width="1640" height="8" as="geometry" />
        </mxCell>
        <mxCell id="wxieQr1_1ycLe86I2z0I-22" value="ignoreWarning" style="html=1;verticalAlign=bottom;endArrow=block;curved=0;rounded=0;" parent="1" edge="1" source="3nIZqbsl4TykDKHGsZq8-3">
          <mxGeometry width="80" relative="1" as="geometry">
            <mxPoint x="1570.5" y="1360" as="sourcePoint" />
            <mxPoint x="360.5" y="1360" as="targetPoint" />
          </mxGeometry>
        </mxCell>
        <mxCell id="wxieQr1_1ycLe86I2z0I-24" value="setTimeStamp = now()&lt;div&gt;setWarningStatus = IGNORED&lt;/div&gt;" style="html=1;verticalAlign=bottom;endArrow=block;curved=0;rounded=0;" parent="1" edge="1">
          <mxGeometry width="80" relative="1" as="geometry">
            <mxPoint x="360.5" y="1400" as="sourcePoint" />
            <mxPoint x="529.5" y="1400" as="targetPoint" />
          </mxGeometry>
        </mxCell>
        <mxCell id="wxieQr1_1ycLe86I2z0I-36" value="getCurrentWorkModeOfUser(User)" style="html=1;verticalAlign=bottom;endArrow=block;curved=0;rounded=0;" parent="1" edge="1" target="wxieQr1_1ycLe86I2z0I-40">
          <mxGeometry width="80" relative="1" as="geometry">
            <mxPoint x="360.5" y="1830" as="sourcePoint" />
            <mxPoint x="1711.5" y="1830" as="targetPoint" />
            <mxPoint as="offset" />
          </mxGeometry>
        </mxCell>
        <mxCell id="wxieQr1_1ycLe86I2z0I-37" value="" style="html=1;verticalAlign=bottom;endArrow=open;dashed=1;endSize=8;curved=0;rounded=0;" parent="1" edge="1" source="wxieQr1_1ycLe86I2z0I-40">
          <mxGeometry x="0.0273" y="3" relative="1" as="geometry">
            <mxPoint x="1711.5" y="1859" as="sourcePoint" />
            <mxPoint x="360.5" y="1859" as="targetPoint" />
            <mxPoint x="1" as="offset" />
          </mxGeometry>
        </mxCell>
        <mxCell id="wxieQr1_1ycLe86I2z0I-38" value="currentWorkMode" style="edgeLabel;html=1;align=center;verticalAlign=middle;resizable=0;points=[];" parent="wxieQr1_1ycLe86I2z0I-37" vertex="1" connectable="0">
          <mxGeometry x="0.0891" y="-2" relative="1" as="geometry">
            <mxPoint x="13" y="-8" as="offset" />
          </mxGeometry>
        </mxCell>
        <mxCell id="wxieQr1_1ycLe86I2z0I-40" value="TimeRecord&lt;br&gt;Service" style="shape=umlLifeline;perimeter=lifelinePerimeter;whiteSpace=wrap;html=1;container=1;dropTarget=0;collapsible=0;recursiveResize=0;outlineConnect=0;portConstraint=eastwest;newEdgeStyle={&quot;curved&quot;:0,&quot;rounded&quot;:0};" parent="1" vertex="1">
          <mxGeometry x="1640" y="40" width="100" height="2120" as="geometry" />
        </mxCell>
        <mxCell id="wxieQr1_1ycLe86I2z0I-41" value="Alt" style="shape=umlFrame;whiteSpace=wrap;html=1;pointerEvents=0;" parent="1" vertex="1">
          <mxGeometry x="80" y="1880" width="1640" height="230" as="geometry" />
        </mxCell>
        <mxCell id="wxieQr1_1ycLe86I2z0I-42" value="[currentWorkMode.isInRoom == true]&lt;br&gt;(&quot;AVAILABLE&quot; or &quot;DEEP_WORK&quot;)" style="text;html=1;align=center;verticalAlign=middle;resizable=0;points=[];autosize=1;strokeColor=none;fillColor=none;" parent="1" vertex="1">
          <mxGeometry x="142" y="1880" width="220" height="40" as="geometry" />
        </mxCell>
        <mxCell id="wxieQr1_1ycLe86I2z0I-43" value="" style="html=1;verticalAlign=bottom;endArrow=open;dashed=1;endSize=8;curved=0;rounded=0;" parent="1" edge="1">
          <mxGeometry relative="1" as="geometry">
            <mxPoint x="360.5" y="1929" as="sourcePoint" />
            <mxPoint x="525.5" y="1929" as="targetPoint" />
          </mxGeometry>
        </mxCell>
        <mxCell id="wxieQr1_1ycLe86I2z0I-44" value="" style="shape=umlDestroy;whiteSpace=wrap;html=1;strokeWidth=3;targetShapes=umlLifeline;" parent="1" vertex="1">
          <mxGeometry x="515" y="1915" width="30" height="30" as="geometry" />
        </mxCell>
        <mxCell id="wxieQr1_1ycLe86I2z0I-45" value="&amp;lt;&amp;lt;new&amp;gt;&amp;gt;" style="html=1;verticalAlign=bottom;endArrow=open;dashed=1;endSize=8;curved=0;rounded=0;" parent="1" edge="1">
          <mxGeometry relative="1" as="geometry">
            <mxPoint x="362" y="1969" as="sourcePoint" />
            <mxPoint x="649.5" y="1969" as="targetPoint" />
          </mxGeometry>
        </mxCell>
        <mxCell id="wxieQr1_1ycLe86I2z0I-46" value="timeStamp = climateMeasuerement.getTimeStamp()&lt;div&gt;warningStatus = DRAFT&lt;/div&gt;" style="edgeLabel;html=1;align=center;verticalAlign=middle;resizable=0;points=[];" parent="wxieQr1_1ycLe86I2z0I-45" vertex="1" connectable="0">
          <mxGeometry x="0.5885" y="-4" relative="1" as="geometry">
            <mxPoint x="-83" y="11" as="offset" />
          </mxGeometry>
        </mxCell>
        <mxCell id="wxieQr1_1ycLe86I2z0I-47" value="timeStamp= climateMeasuerement.getTimeStamp()" style="html=1;verticalAlign=bottom;endArrow=block;curved=0;rounded=0;" parent="1" edge="1">
          <mxGeometry width="80" relative="1" as="geometry">
            <mxPoint x="360.5" y="2059" as="sourcePoint" />
            <mxPoint x="529.5" y="2059" as="targetPoint" />
          </mxGeometry>
        </mxCell>
        <mxCell id="wxieQr1_1ycLe86I2z0I-51" value="" style="line;strokeWidth=1;fillColor=none;align=left;verticalAlign=middle;spacingTop=-1;spacingLeft=3;spacingRight=3;rotatable=0;labelPosition=right;points=[];portConstraint=eastwest;strokeColor=inherit;" parent="1" vertex="1">
          <mxGeometry x="80" y="2010" width="1640" height="8" as="geometry" />
        </mxCell>
        <mxCell id="xRqG93FHIgIY-TSpZSsB-3" value="Alt" style="shape=umlFrame;whiteSpace=wrap;html=1;pointerEvents=0;" parent="1" vertex="1">
          <mxGeometry x="70" y="790" width="1660" height="1330" as="geometry" />
        </mxCell>
        <mxCell id="TvGUeZ-TrCDfsQQZFpxs-1" value="&lt;span style=&quot;font-size: 11px; background-color: rgb(255, 255, 255);&quot;&gt;[areLimitsViolated == True]&lt;/span&gt;" style="text;html=1;align=center;verticalAlign=middle;resizable=0;points=[];autosize=1;strokeColor=none;fillColor=none;" parent="1" vertex="1">
          <mxGeometry x="111" y="339" width="150" height="30" as="geometry" />
        </mxCell>
        <mxCell id="TvGUeZ-TrCDfsQQZFpxs-7" value="&lt;span style=&quot;font-size: 11px; background-color: rgb(255, 255, 255);&quot;&gt;[existActiveWarning ==&amp;nbsp;&lt;/span&gt;&lt;span style=&quot;font-size: 11px; background-color: rgb(255, 255, 255);&quot;&gt;False]&lt;/span&gt;" style="text;html=1;align=center;verticalAlign=middle;resizable=0;points=[];autosize=1;strokeColor=none;fillColor=none;" parent="1" vertex="1">
          <mxGeometry x="114" y="490" width="170" height="30" as="geometry" />
        </mxCell>
        <mxCell id="TvGUeZ-TrCDfsQQZFpxs-9" value="&lt;span style=&quot;font-size: 11px; background-color: rgb(255, 255, 255);&quot;&gt;[existActiveWarning ==&amp;nbsp;&lt;/span&gt;&lt;span style=&quot;font-size: 11px; background-color: rgb(255, 255, 255);&quot;&gt;True]&lt;/span&gt;" style="text;html=1;align=center;verticalAlign=middle;resizable=0;points=[];autosize=1;strokeColor=none;fillColor=none;" parent="1" vertex="1">
          <mxGeometry x="114" y="658" width="160" height="30" as="geometry" />
        </mxCell>
        <mxCell id="TvGUeZ-TrCDfsQQZFpxs-10" value="warning2&lt;div&gt;:Warning&lt;/div&gt;" style="shape=umlLifeline;perimeter=lifelinePerimeter;whiteSpace=wrap;html=1;container=1;dropTarget=0;collapsible=0;recursiveResize=0;outlineConnect=0;portConstraint=eastwest;newEdgeStyle={&quot;curved&quot;:0,&quot;rounded&quot;:0};" parent="1" vertex="1">
          <mxGeometry x="600" y="520" width="100" height="1640" as="geometry" />
        </mxCell>
        <mxCell id="8EiC_3UMeOr8eOnR2g8f-2" value="isMeasurementOlder&lt;br&gt;Than15Minutes" style="html=1;align=left;spacingLeft=2;endArrow=block;rounded=0;edgeStyle=orthogonalEdgeStyle;curved=0;rounded=0;" parent="1" source="3nIZqbsl4TykDKHGsZq8-2" target="3nIZqbsl4TykDKHGsZq8-2" edge="1">
          <mxGeometry x="-1" y="-63" relative="1" as="geometry">
            <mxPoint x="90" y="100" as="sourcePoint" />
            <Array as="points">
              <mxPoint x="150" y="100" />
              <mxPoint x="150" y="140" />
            </Array>
            <mxPoint x="95" y="130" as="targetPoint" />
            <mxPoint x="-60" y="-43" as="offset" />
          </mxGeometry>
        </mxCell>
        <mxCell id="8EiC_3UMeOr8eOnR2g8f-3" value="LimitService" style="shape=umlLifeline;perimeter=lifelinePerimeter;whiteSpace=wrap;html=1;container=1;dropTarget=0;collapsible=0;recursiveResize=0;outlineConnect=0;portConstraint=eastwest;newEdgeStyle={&quot;curved&quot;:0,&quot;rounded&quot;:0};" parent="1" vertex="1">
          <mxGeometry x="179" y="40" width="100" height="420" as="geometry" />
        </mxCell>
        <mxCell id="8EiC_3UMeOr8eOnR2g8f-4" value="findLimitBySensorType" style="html=1;verticalAlign=bottom;endArrow=block;curved=0;rounded=0;" parent="1" edge="1">
          <mxGeometry width="80" relative="1" as="geometry">
            <mxPoint x="98.5" y="224" as="sourcePoint" />
            <mxPoint x="228.5" y="224" as="targetPoint" />
          </mxGeometry>
        </mxCell>
        <mxCell id="8EiC_3UMeOr8eOnR2g8f-5" value="&lt;div&gt;Limits&lt;/div&gt;" style="html=1;verticalAlign=bottom;endArrow=open;dashed=1;endSize=8;curved=0;rounded=0;" parent="1" source="8EiC_3UMeOr8eOnR2g8f-3" target="3nIZqbsl4TykDKHGsZq8-2" edge="1">
          <mxGeometry y="20" relative="1" as="geometry">
            <mxPoint x="210" y="250" as="sourcePoint" />
            <mxPoint x="90" y="250" as="targetPoint" />
            <mxPoint as="offset" />
          </mxGeometry>
        </mxCell>
        <mxCell id="8EiC_3UMeOr8eOnR2g8f-7" value="Alt" style="shape=umlFrame;whiteSpace=wrap;html=1;pointerEvents=0;" parent="1" vertex="1">
          <mxGeometry x="39" y="170" width="1721" height="1980" as="geometry" />
        </mxCell>
        <mxCell id="8EiC_3UMeOr8eOnR2g8f-8" value="&lt;span style=&quot;font-size: 11px; background-color: rgb(255, 255, 255);&quot;&gt;[isMeasurementOlderThan15Minutes == True&lt;/span&gt;&lt;span style=&quot;font-size: 11px; background-color: rgb(255, 255, 255);&quot;&gt;]&lt;/span&gt;" style="text;html=1;align=center;verticalAlign=middle;resizable=0;points=[];autosize=1;strokeColor=none;fillColor=none;" parent="1" vertex="1">
          <mxGeometry x="99" y="170" width="250" height="30" as="geometry" />
        </mxCell>
        <mxCell id="8EiC_3UMeOr8eOnR2g8f-15" value="Token&lt;br&gt;Service" style="shape=umlLifeline;perimeter=lifelinePerimeter;whiteSpace=wrap;html=1;container=1;dropTarget=0;collapsible=0;recursiveResize=0;outlineConnect=0;portConstraint=eastwest;newEdgeStyle={&quot;curved&quot;:0,&quot;rounded&quot;:0};" parent="1" vertex="1">
          <mxGeometry x="730" y="40" width="100" height="2120" as="geometry" />
        </mxCell>
        <mxCell id="8EiC_3UMeOr8eOnR2g8f-16" value="disableToken(token)" style="html=1;verticalAlign=bottom;endArrow=block;curved=0;rounded=0;labelBackgroundColor=none;" parent="1" source="3nIZqbsl4TykDKHGsZq8-5" edge="1">
          <mxGeometry x="0.0233" y="-1" width="80" relative="1" as="geometry">
            <mxPoint x="350.5" y="911" as="sourcePoint" />
            <mxPoint x="779.5" y="911" as="targetPoint" />
            <mxPoint x="1" as="offset" />
          </mxGeometry>
        </mxCell>
        <mxCell id="8EiC_3UMeOr8eOnR2g8f-17" value="generateToken(token)" style="html=1;verticalAlign=bottom;endArrow=block;curved=0;rounded=0;labelBackgroundColor=none;" parent="1" edge="1">
          <mxGeometry x="0.0233" y="-1" width="80" relative="1" as="geometry">
            <mxPoint x="360.5" y="1099" as="sourcePoint" />
            <mxPoint x="779.5" y="1099" as="targetPoint" />
            <mxPoint x="1" as="offset" />
          </mxGeometry>
        </mxCell>
        <mxCell id="UhyEkYPFdRvdcwdPK82c-1" value="EmailNotification&lt;div&gt;Listener&lt;/div&gt;" style="shape=umlLifeline;perimeter=lifelinePerimeter;whiteSpace=wrap;html=1;container=1;dropTarget=0;collapsible=0;recursiveResize=0;outlineConnect=0;portConstraint=eastwest;newEdgeStyle={&quot;curved&quot;:0,&quot;rounded&quot;:0};" parent="1" vertex="1">
          <mxGeometry x="991" y="40" width="100" height="2120" as="geometry" />
        </mxCell>
        <mxCell id="UhyEkYPFdRvdcwdPK82c-2" value="ListNotification&lt;div&gt;Listener&lt;/div&gt;" style="shape=umlLifeline;perimeter=lifelinePerimeter;whiteSpace=wrap;html=1;container=1;dropTarget=0;collapsible=0;recursiveResize=0;outlineConnect=0;portConstraint=eastwest;newEdgeStyle={&quot;curved&quot;:0,&quot;rounded&quot;:0};" parent="1" vertex="1">
          <mxGeometry x="1120" y="40" width="100" height="2120" as="geometry" />
        </mxCell>
        <mxCell id="UhyEkYPFdRvdcwdPK82c-3" value="publishEvent(temperaDevice, warning)" style="html=1;verticalAlign=bottom;endArrow=block;curved=0;rounded=0;" parent="1" edge="1">
          <mxGeometry width="80" relative="1" as="geometry">
            <mxPoint x="909.5" y="1169" as="sourcePoint" />
            <mxPoint x="1040.5" y="1169" as="targetPoint" />
          </mxGeometry>
        </mxCell>
        <mxCell id="UhyEkYPFdRvdcwdPK82c-4" value="EmailService" style="shape=umlLifeline;perimeter=lifelinePerimeter;whiteSpace=wrap;html=1;container=1;dropTarget=0;collapsible=0;recursiveResize=0;outlineConnect=0;portConstraint=eastwest;newEdgeStyle={&quot;curved&quot;:0,&quot;rounded&quot;:0};" parent="1" vertex="1">
          <mxGeometry x="1250" y="40" width="100" height="2120" as="geometry" />
        </mxCell>
        <mxCell id="UhyEkYPFdRvdcwdPK82c-5" value="sendEmail(user, subject, message)" style="html=1;verticalAlign=bottom;endArrow=block;curved=0;rounded=0;" parent="1" edge="1">
          <mxGeometry width="80" relative="1" as="geometry">
            <mxPoint x="1040.5" y="1200" as="sourcePoint" />
            <mxPoint x="1299.5" y="1200" as="targetPoint" />
          </mxGeometry>
        </mxCell>
        <mxCell id="UhyEkYPFdRvdcwdPK82c-9" value="addNotificationToBell(warning)" style="html=1;verticalAlign=bottom;endArrow=block;curved=0;rounded=0;" parent="1" target="UhyEkYPFdRvdcwdPK82c-10" edge="1">
          <mxGeometry width="80" relative="1" as="geometry">
            <mxPoint x="1169.5" y="1270" as="sourcePoint" />
            <mxPoint x="1379.5" y="1270" as="targetPoint" />
          </mxGeometry>
        </mxCell>
        <mxCell id="UhyEkYPFdRvdcwdPK82c-10" value="Notification&lt;div&gt;Service&lt;/div&gt;" style="shape=umlLifeline;perimeter=lifelinePerimeter;whiteSpace=wrap;html=1;container=1;dropTarget=0;collapsible=0;recursiveResize=0;outlineConnect=0;portConstraint=eastwest;newEdgeStyle={&quot;curved&quot;:0,&quot;rounded&quot;:0};" parent="1" vertex="1">
          <mxGeometry x="1380" y="40" width="100" height="2120" as="geometry" />
        </mxCell>
        <mxCell id="UhyEkYPFdRvdcwdPK82c-11" value="disableToken(token)" style="html=1;verticalAlign=bottom;endArrow=block;curved=0;rounded=0;labelBackgroundColor=none;exitX=0.49;exitY=0.793;exitDx=0;exitDy=0;exitPerimeter=0;" parent="1" edge="1">
          <mxGeometry x="0.0233" y="-1" width="80" relative="1" as="geometry">
            <mxPoint x="360" y="1428.4899999999998" as="sourcePoint" />
            <mxPoint x="779.5" y="1428.4899999999998" as="targetPoint" />
            <mxPoint x="1" as="offset" />
          </mxGeometry>
        </mxCell>
        <mxCell id="UhyEkYPFdRvdcwdPK82c-13" value="publishEvent(temperaDevice, warning)" style="html=1;verticalAlign=bottom;endArrow=block;curved=0;rounded=0;" parent="1" edge="1">
          <mxGeometry width="80" relative="1" as="geometry">
            <mxPoint x="360.5" y="1460" as="sourcePoint" />
            <mxPoint x="909.5" y="1460" as="targetPoint" />
          </mxGeometry>
        </mxCell>
        <mxCell id="UhyEkYPFdRvdcwdPK82c-14" value="publishEvent(temperaDevice, warning)" style="html=1;verticalAlign=bottom;endArrow=block;curved=0;rounded=0;" parent="1" edge="1">
          <mxGeometry width="80" relative="1" as="geometry">
            <mxPoint x="909.5" y="1490" as="sourcePoint" />
            <mxPoint x="1169.5" y="1490" as="targetPoint" />
          </mxGeometry>
        </mxCell>
        <mxCell id="UhyEkYPFdRvdcwdPK82c-15" value="deleteNotification(warning)" style="html=1;verticalAlign=bottom;endArrow=block;curved=0;rounded=0;" parent="1" edge="1">
          <mxGeometry width="80" relative="1" as="geometry">
            <mxPoint x="1170" y="1520" as="sourcePoint" />
            <mxPoint x="1430.5" y="1520" as="targetPoint" />
          </mxGeometry>
        </mxCell>
        <mxCell id="UhyEkYPFdRvdcwdPK82c-16" value="confirmWarning" style="html=1;verticalAlign=bottom;endArrow=block;curved=0;rounded=0;" parent="1" edge="1" source="3nIZqbsl4TykDKHGsZq8-3">
          <mxGeometry width="80" relative="1" as="geometry">
            <mxPoint x="1570.5" y="1588" as="sourcePoint" />
            <mxPoint x="360.5" y="1588" as="targetPoint" />
          </mxGeometry>
        </mxCell>
        <mxCell id="UhyEkYPFdRvdcwdPK82c-17" value="&lt;div&gt;setTimeStamp = now()&lt;/div&gt;&lt;div&gt;setWarningStatus = CONFIRMED&lt;/div&gt;" style="html=1;verticalAlign=bottom;endArrow=block;curved=0;rounded=0;" parent="1" edge="1">
          <mxGeometry width="80" relative="1" as="geometry">
            <mxPoint x="360.5" y="1628" as="sourcePoint" />
            <mxPoint x="529.5" y="1628" as="targetPoint" />
          </mxGeometry>
        </mxCell>
        <mxCell id="UhyEkYPFdRvdcwdPK82c-18" value="disableToken(token)" style="html=1;verticalAlign=bottom;endArrow=block;curved=0;rounded=0;labelBackgroundColor=none;exitX=0.49;exitY=0.793;exitDx=0;exitDy=0;exitPerimeter=0;" parent="1" edge="1">
          <mxGeometry x="0.0233" y="-1" width="80" relative="1" as="geometry">
            <mxPoint x="360" y="1656.4899999999998" as="sourcePoint" />
            <mxPoint x="779.5" y="1656.4899999999998" as="targetPoint" />
            <mxPoint x="1" as="offset" />
          </mxGeometry>
        </mxCell>
        <mxCell id="UhyEkYPFdRvdcwdPK82c-19" value="publishEvent(temperaDevice, warning)" style="html=1;verticalAlign=bottom;endArrow=block;curved=0;rounded=0;" parent="1" edge="1">
          <mxGeometry width="80" relative="1" as="geometry">
            <mxPoint x="360.5" y="1688" as="sourcePoint" />
            <mxPoint x="909.5" y="1688" as="targetPoint" />
          </mxGeometry>
        </mxCell>
        <mxCell id="UhyEkYPFdRvdcwdPK82c-20" value="publishEvent(temperaDevice, warning)" style="html=1;verticalAlign=bottom;endArrow=block;curved=0;rounded=0;" parent="1" edge="1">
          <mxGeometry width="80" relative="1" as="geometry">
            <mxPoint x="909.5" y="1718" as="sourcePoint" />
            <mxPoint x="1169.5" y="1718" as="targetPoint" />
          </mxGeometry>
        </mxCell>
        <mxCell id="UhyEkYPFdRvdcwdPK82c-21" value="deleteNotification(warning)" style="html=1;verticalAlign=bottom;endArrow=block;curved=0;rounded=0;" parent="1" edge="1">
          <mxGeometry width="80" relative="1" as="geometry">
            <mxPoint x="1170" y="1748" as="sourcePoint" />
            <mxPoint x="1430.5" y="1748" as="targetPoint" />
          </mxGeometry>
        </mxCell>
        <mxCell id="pti67GzcFRM_MKV29DDU-4" value="" style="line;strokeWidth=1;fillColor=none;align=left;verticalAlign=middle;spacingTop=-1;spacingLeft=3;spacingRight=3;rotatable=0;labelPosition=right;points=[];portConstraint=eastwest;strokeColor=inherit;" vertex="1" parent="1">
          <mxGeometry x="70" y="991" width="1660" height="8" as="geometry" />
        </mxCell>
        <mxCell id="pti67GzcFRM_MKV29DDU-6" value="[WarningStatus = UNSEEN &amp;amp;&amp;amp; t&lt;span style=&quot;background-color: initial;&quot;&gt;imeStamp is older than 30 minutes&lt;/span&gt;&lt;span style=&quot;background-color: initial;&quot;&gt;]&lt;/span&gt;&lt;div&gt;(User did nothing after receiving warning)&lt;span style=&quot;background-color: initial;&quot;&gt;&lt;br&gt;&lt;/span&gt;&lt;/div&gt;" style="text;html=1;align=center;verticalAlign=middle;resizable=0;points=[];autosize=1;strokeColor=none;fillColor=none;" vertex="1" parent="1">
          <mxGeometry x="85" y="1773" width="380" height="40" as="geometry" />
        </mxCell>
        <mxCell id="pti67GzcFRM_MKV29DDU-8" value="[currentWorkMode.isInRoom == false]&lt;br&gt;(&quot;OUT_OF_OFFICE&quot; or &quot;MEETING&quot;)" style="text;html=1;align=center;verticalAlign=middle;resizable=0;points=[];autosize=1;strokeColor=none;fillColor=none;" vertex="1" parent="1">
          <mxGeometry x="75" y="2020" width="230" height="40" as="geometry" />
        </mxCell>
        <mxCell id="pti67GzcFRM_MKV29DDU-9" value="" style="line;strokeWidth=1;fillColor=none;align=left;verticalAlign=middle;spacingTop=-1;spacingLeft=3;spacingRight=3;rotatable=0;labelPosition=right;points=[];portConstraint=eastwest;strokeColor=inherit;" vertex="1" parent="1">
          <mxGeometry x="61" y="630" width="1679" height="8" as="geometry" />
        </mxCell>
        <mxCell id="pti67GzcFRM_MKV29DDU-12" value="Actually not the warning itself is added to the NotificationList but a corresponding warningNotification." style="shape=note;size=14;whiteSpace=wrap;html=1;" vertex="1" parent="1">
          <mxGeometry x="1450" y="1220" width="190" height="70" as="geometry" />
        </mxCell>
      </root>
    </mxGraphModel>
  </diagram>
</mxfile>
